<?xml version="1.0" encoding="UTF-8" standalone="no"?>
<!-- Created with Inkscape (http://www.inkscape.org/) -->

<svg
   xmlns:dc="http://purl.org/dc/elements/1.1/"
   xmlns:cc="http://creativecommons.org/ns#"
   xmlns:rdf="http://www.w3.org/1999/02/22-rdf-syntax-ns#"
   xmlns:svg="http://www.w3.org/2000/svg"
   xmlns="http://www.w3.org/2000/svg"
   xmlns:sodipodi="http://sodipodi.sourceforge.net/DTD/sodipodi-0.dtd"
   xmlns:inkscape="http://www.inkscape.org/namespaces/inkscape"
   width="240"
   height="240"
   viewBox="0 0 240 240"
   id="svg2"
   version="1.1"
   inkscape:version="0.91 r13725"
   sodipodi:docname="history.svg">
  <defs
     id="defs4" />
  <sodipodi:namedview
     id="base"
     pagecolor="#ffffff"
     bordercolor="#666666"
     borderopacity="1.0"
     inkscape:pageopacity="0.0"
     inkscape:pageshadow="2"
     inkscape:zoom="3.2819756"
     inkscape:cx="98.045379"
     inkscape:cy="124.02668"
     inkscape:document-units="px"
     inkscape:current-layer="layer1"
     showgrid="false"
     units="px"
     inkscape:window-width="1613"
     inkscape:window-height="1077"
     inkscape:window-x="233"
     inkscape:window-y="0"
     inkscape:window-maximized="0" />
  <metadata
     id="metadata7">
    <rdf:RDF>
      <cc:Work
         rdf:about="">
        <dc:format>image/svg+xml</dc:format>
        <dc:type
           rdf:resource="http://purl.org/dc/dcmitype/StillImage" />
        <dc:title></dc:title>
      </cc:Work>
    </rdf:RDF>
  </metadata>
  <g
     inkscape:label="レイヤー 1"
     inkscape:groupmode="layer"
     id="layer1"
     transform="translate(0,-812.36216)">
    <path
       style="fill:#000000"
       d="m 105.31168,1051.2394 c -16.530236,-2.0748 -34.539596,-8.6244 -49.779306,-18.1037 -11.267662,-7.0086 -28.341248,-23.3318 -28.341248,-27.0957 0,-2.0264 2.647593,-5.4068 11.139354,-14.22253 6.126645,-6.36042 12.24524,-11.84197 13.596877,-12.18121 2.092006,-0.52506 3.744535,0.65312 11.110646,7.9214 18.008691,17.76944 33.603351,24.24684 58.153117,24.15454 12.51518,-0.047 14.19302,-0.2865 23,-3.281 25.23979,-8.58176 43.94726,-27.26395 52.21707,-52.14629 2.96325,-8.91587 3.15698,-10.39157 3.15078,-24 -0.006,-13.17252 -0.26257,-15.27818 -2.80259,-23 -3.27585,-9.9588 -5.41837,-14.39217 -10.77612,-22.29837 -10.65063,-15.71665 -27.09243,-27.01958 -47.78914,-32.85269 -6.9781,-1.96669 -30.08035,-1.64676 -37.94215,0.52544 -8.538386,2.35915 -17.508336,6.49638 -24.695046,11.39017 -10.67351,7.26812 -10.66307,6.4959 -0.2268,16.78373 10.69058,10.53853 14.864,15.88859 14.864,19.0547 0,3.75228 -2.02643,7.09847 -5.36763,8.86341 -2.78634,1.47184 -7.30011,1.62033 -40.860656,1.34412 l -37.7282891,-0.31051 -2.771711,-2.77171 -2.77171196,-2.77171 -0.285378,-37.68578 c -0.308389,-40.72447 -0.145563,-42.22091 4.87657196,-44.81796 6.2983871,-3.25702 8.3055411,-2.21177 22.4088061,11.66972 l 10,9.84275 4.5,-3.83129 c 15.495795,-13.19307 36.401468,-23.17711 57.044178,-27.24291 9.831026,-1.93632 33.752656,-1.68334 43.908406,0.46435 48.35812,10.22656 84.33836,46.19889 94.71274,94.69195 2.45473,11.47417 2.44177,34.19969 -0.0262,45.90518 -10.126,48.0274 -46.67262,84.7213 -94.13915,94.5184 -9.76501,2.0155 -28.40166,2.7359 -38.37944,1.4835 z M 81.762554,960.71348 c -1.11925,-1.11925 -1.57143,-3.52054 -1.57143,-8.34501 0,-10.16129 -0.16827,-10.08356 21.828736,-10.08356 l 18.17126,0 0,-28.34501 c 0,-33.24223 -0.51432,-31.65499 10.25731,-31.65499 4.66651,0 7.06016,0.46033 8.17126,1.57143 1.37173,1.37172 1.57143,6.25541 1.57143,38.42857 0,32.17316 -0.1997,37.05685 -1.57143,38.42857 -1.35056,1.35056 -5.34632,1.57143 -28.42857,1.57143 -23.082246,0 -27.078006,-0.22087 -28.428566,-1.57143 z"
       id="path4155"
       inkscape:connector-curvature="0" />
  </g>
</svg>
